<svg xmlns="http://www.w3.org/2000/svg" width="129.75" height="118.594" viewBox="0 0 129.75 118.594">
  <metadata><?xpacket begin="﻿" id="W5M0MpCehiHzreSzNTczkc9d"?>
<x:xmpmeta xmlns:x="adobe:ns:meta/" x:xmptk="Adobe XMP Core 5.6-c142 79.160924, 2017/07/13-01:06:39        ">
   <rdf:RDF xmlns:rdf="http://www.w3.org/1999/02/22-rdf-syntax-ns#">
      <rdf:Description rdf:about=""/>
   </rdf:RDF>
</x:xmpmeta>
                                                                                                    
                                                                                                    
                                                                                                    
                                                                                                    
                                                                                                    
                                                                                                    
                                                                                                    
                                                                                                    
                                                                                                    
                                                                                                    
                                                                                                    
                                                                                                    
                                                                                                    
                                                                                                    
                                                                                                    
                                                                                                    
                                                                                                    
                                                                                                    
                                                                                                    
                                                                                                    
                           
<?xpacket end="w"?></metadata>
<defs>
    <style>
      .cls-1 {
        fill-rule: evenodd;
      }
    </style>
  </defs>
  <path id="csstrackr.svg" class="cls-1" d="M217.537,127.042l-41.762,15.372v-10.12l28.695-10.248-24.2-8.642a32.4,32.4,0,0,1-18.778,1.684l-0.4,1a8.807,8.807,0,0,1,.233,7.261l-17,41.007a8.918,8.918,0,0,1-11.626,4.817,8.809,8.809,0,0,1-3.236-2.295H128.9l0.182-.461a8.829,8.829,0,0,1-1.2-8.824l17-41a8.857,8.857,0,0,1,5.876-5.161l0.216-.546a32.494,32.494,0,1,1,39.293-3.879l27.265,10.036v9.992ZM176.778,62.73a22.515,22.515,0,0,0-22.119,38.828l0.029-.072a21.848,21.848,0,0,0,10.47,4.31l-0.01.025c0.176,0.023.352,0.035,0.528,0.054l0.145,0.015a22.457,22.457,0,0,0,9.954-1.227v-0.1a21.8,21.8,0,0,0,3.4-1.632l0.209,0.077A22.448,22.448,0,0,0,176.778,62.73ZM87.8,117.05l41.761-15.372V111.8l-28.695,10.248,28.695,10.248v10.12L87.8,127.042V117.05Z" transform="translate(-87.781 -51.281)"/>
</svg>
